# xmcd
# 
# Track frame offsets:
#     150
#     11254
#     26387
#     46162
#     67805
#     81820
#     101158
#     148144
#     163861
#     193737
#     210278
#     224872
#     244219
#     256182
#     267082
#     276903
#     292256
#     312241
#     328938
#     343026
# 
# Disc length: 4754
# 
# Revision: 0
# Processed by: cddbd v1.5.2PL0 Copyright (c) Steve Scherf et al.
# Submitted via: fre:ac v1.0.17
# 
DISCID=34129014
DTITLE=Various Artist - Spirit Of Blues
DYEAR=2010
DGENRE=Blues
TTITLE0=John Lee Hooker - Boom Boom
TTITLE1=Johnny Otis - Bad Luck Shadow
TTITLE2=J.J. Milteau - Down In Mississipi
TTITLE3=Lucky Peterson - Is It Because I'm Black
TTITLE4=Jean Charton - Baby Please Don't Go
TTITLE5=Popa Chubby - Angel On My Shoulder
TTITLE6=Bo Diddley - I'm A Man
TTITLE7=Screamin' Jay Hawkins - I Put A Spell On You
TTITLE8=Etta James - Ball And Chain
TTITLE9=Eric Bibb - Got To Do Better
TTITLE10=Dinah Washington - Long John Blues
TTITLE11=Guitar Gabriel - Came So Far
TTITLE12=Charles Brown - Trouble Blues
TTITLE13=B.B. King - Catfish Blues
TTITLE14=Buddy Guy - First Time I Met The Blues
TTITLE15=Floyd Dixon - Hey Bartender
TTITLE16=Duke Robillard - Lookin' For Trouble
TTITLE17=Muddy Waters - Sad Sad Day
TTITLE18=Ray Charles - Blues Is My Middle Name
TTITLE19=Robert Johnson - Sweet Home Chicago
EXTD=CD 1 - Blues Legend
EXTT0=
EXTT1=
EXTT2=
EXTT3=
EXTT4=
EXTT5=
EXTT6=
EXTT7=
EXTT8=
EXTT9=
EXTT10=
EXTT11=
EXTT12=
EXTT13=
EXTT14=
EXTT15=
EXTT16=
EXTT17=
EXTT18=
EXTT19=
PLAYORDER=
